<?xml version="1.0" encoding="UTF-8"?>
<!DOCTYPE svg PUBLIC "-//W3C//DTD SVG 1.1//EN" "http://www.w3.org/Graphics/SVG/1.1/DTD/svg11.dtd">
<!-- Creator: Corel DESIGNER -->
<svg xmlns="http://www.w3.org/2000/svg" xml:space="preserve" width="108.09mm" height="112.493mm" version="1.1" style="shape-rendering:geometricPrecision; text-rendering:geometricPrecision; image-rendering:optimizeQuality; fill-rule:evenodd; clip-rule:evenodd"
viewBox="0 0 9645.66 10038.57"
 xmlns:xlink="http://www.w3.org/1999/xlink"
 xmlns:xodm="http://www.corel.com/coreldraw/odm/2003">
 <defs>
  <style type="text/css">
   <![CDATA[
    .fil0 {fill:#2FB67A}
   ]]>
  </style>
 </defs>
 <g id="Слой_x0020_1">
  <metadata id="CorelCorpID_0Corel-Layer"/>
  <path class="fil0" d="M2971.11 722.1c0,0 -15.32,122.59 91.9,91.89 153.19,-45.98 15.27,-76.57 -91.9,-91.89zm704.53 704.42l0 0c-260.4,76.57 -566.72,199.16 -949.6,474.78 15.32,-15.27 30.7,-137.7 76.57,-183.73 61.35,-91.89 122.59,-30.64 229.75,-91.89 30.65,-30.6 0,-76.57 0,-137.81 214.38,-76.62 291.05,-183.84 520.7,-275.73 306.37,-122.49 1317.12,-153.08 1332.44,-153.08 122.49,-382.89 -643.29,-45.92 -796.43,-76.68 -45.91,-15.32 -474.72,-30.54 46.03,-137.69 61.19,15.32 153.13,15.32 153.13,15.32 153.14,-61.35 183.73,-245.14 398.21,-245.14 214.38,0 520.7,229.81 658.51,245.14 168.51,30.54 245.07,-30.76 336.97,-46.03 658.5,-91.89 1056.72,30.71 1179.2,505.37 15.38,61.35 -30.65,137.92 30.59,168.52 30.65,15.22 61.35,0 76.67,0 91.9,30.64 459.46,290.94 321.54,474.67 -107.17,137.92 -275.62,61.35 -444.13,0l91.89 -15.22c260.4,76.57 306.32,-91.84 76.62,-168.52 -61.24,-15.22 -214.43,-15.22 -291,-61.24 -91.9,-61.24 -45.98,-260.3 -183.84,-306.32 -183.73,-30.55 -245.03,76.62 -260.3,168.51 -214.38,0 -291.05,-137.81 -490.1,-199.05 -735.07,-229.75 -1730.55,-46.02 -1944.98,0 45.92,-30.75 76.51,-76.67 0,-92 -91.89,-30.6 -153.13,61.24 -168.46,137.81zm4349.48 3231.51l0 0c91.89,76.67 -214.49,750.51 61.24,566.72 0,0 153.13,-428.8 -61.24,-566.72zm-444.14 -2465.68l0 0c107.17,153.13 183.73,459.4 336.86,490.16 61.35,15.22 0,-76.67 0,-76.67 -61.19,-168.4 -214.38,-244.97 -290.94,-413.48l-45.92 0zm-2925.18 -704.48l0 0c-15.38,0 -306.33,153.13 -168.52,153.13 995.48,15.32 995.48,-229.75 168.52,-153.13zm2205.33 -459.46l0 0c15.38,45.98 30.59,91.9 45.91,137.81 122.59,275.73 520.81,352.29 597.37,459.46 30.54,30.64 0,107.21 15.32,137.92 76.51,137.7 352.25,290.94 459.46,382.78 0,0 290.89,137.81 382.79,30.65 122.59,-122.49 -413.43,-137.81 -428.76,-168.46 0,-30.59 30.65,-153.08 0,-229.75 -30.7,-76.57 -183.83,-168.4 -229.75,-260.3 0,-30.64 30.59,-92 15.32,-122.48 -45.91,-46.08 -91.89,0 -137.81,0 -260.4,-30.76 -229.8,-352.3 -444.18,-505.49 -382.89,-291.05 -827.02,-382.95 -1209.91,-291.05 76.57,15.38 781.11,92 934.24,428.91zm-3277.43 1500.85l0 0c107.27,0 199.16,-107.27 321.65,-137.81 352.19,-107.27 612.54,-76.51 934.23,91.89 91.84,45.92 137.76,137.81 199.05,137.81 137.81,15.33 275.67,-61.24 474.83,0 199.05,61.35 459.46,321.65 643.19,367.57 260.4,45.97 45.97,-321.65 -122.49,-336.97 107.21,-260.3 382.88,-306.27 520.69,336.97 -30.59,-15.27 -61.23,-30.6 -107.26,-30.6l0 107.17c61.35,505.42 582.04,474.78 582.04,474.78 290.94,15.32 183.73,643.18 352.19,781.1 0,0 -137.81,704.42 30.71,1240.45 -61.35,61.24 -444.14,520.7 -260.4,689.26 122.49,107.17 352.29,-122.54 214.38,352.24 -91.89,0 0,336.86 -107.16,474.67 -290.95,352.4 -826.97,91.94 -582,367.62 -76.51,30.7 -459.4,291 -658.57,398.21 -413.42,168.52 -1301.8,153.19 -1730.55,15.27 -76.57,-30.59 -137.81,-168.4 -199.16,-183.72 -61.23,-15.32 -137.81,30.59 -183.72,15.32 -61.24,-15.32 -949.56,-260.3 -1148.61,-1087.37 -15.38,-30.64 45.87,-61.24 30.54,-91.83 -15.22,-199.16 -168.45,-291.05 -107.16,-505.54 -45.98,-15.27 -76.57,0 -91.89,-45.91 -15.33,-61.24 45.91,-91.89 45.91,-137.81 0,-15.27 -153.13,0 -229.64,-61.24 -183.84,-122.59 153.13,-398.21 91.83,-582.05 61.3,-45.86 137.81,-76.57 153.13,-153.13 61.24,-168.4 -214.43,-474.78 -490.05,-490.05 91.84,-199.05 -137.81,-122.49 183.73,-658.5 91.89,-183.79 291,-291.06 398.21,-352.3 45.91,-45.91 30.7,-352.24 168.51,-505.37 214.38,-199.05 612.59,-107.16 735.08,-137.92l30.7 -61.14c-61.29,-15.43 -61.29,-45.91 -91.94,-61.35 291,-30.59 459.46,-137.81 735.18,-168.4 -199.16,-61.3 -536.02,-15.32 -735.18,15.27l0 -76.57zm934.18 -2159.47l0 0c153.24,-61.18 490.1,-91.83 765.83,-91.83 183.72,0 367.56,30.65 367.56,30.65 0,0 444.08,245.07 45.92,245.07 -336.92,-15.32 -1347.72,-122.59 -1179.31,-183.89zm-2343.14 842.35l0 0c76.51,-15.27 137.86,30.64 91.83,61.3 46.03,0 107.27,0 168.45,0 306.33,-137.81 321.7,76.51 275.67,168.51 107.27,-107.26 122.59,-306.32 229.76,-459.57 245.02,61.35 321.59,-91.83 474.78,-229.64 -153.19,0 -643.19,168.4 -704.54,229.64 0,46.03 30.65,107.27 15.33,137.93 0,0 -229.71,-153.25 -122.49,-245.08 15.27,-15.22 168.51,-137.81 275.62,-183.73 428.91,-183.89 934.28,-290.94 1347.83,-413.54 214.38,-76.57 1087.31,-122.48 1102.63,-122.48 91.9,-15.33 122.49,76.57 245.08,61.23 45.87,0 306.27,-199.04 367.51,-214.48 260.4,-30.59 336.97,260.4 413.54,428.86 107.17,-15.32 306.33,-61.3 413.48,-15.32 91.9,30.65 168.46,214.43 168.46,275.73 275.67,0 444.13,199.05 643.29,306.33 -30.64,91.83 -30.64,122.49 -61.24,214.32 107.17,0 199.05,15.32 352.25,15.32 15.32,76.57 168.45,275.62 61.23,306.38 122.49,61.23 444.08,290.89 490.11,398.15 61.23,137.81 122.48,199.11 199.04,336.86l45.92 61.3c107.27,76.62 597.27,673.89 520.7,643.3 -61.24,-15.33 -183.73,-153.14 -306.22,-290.95 260.3,398.11 474.67,719.76 627.86,1255.78 214.38,811.69 137.81,2036.98 15.33,2144.03 61.23,153.24 -76.63,857.66 -137.81,980.26 -183.84,382.84 -444.14,811.75 -689.21,1148.61 -61.24,91.89 -643.24,459.45 -857.67,719.85 -306.33,336.86 -260.3,581.95 -290.94,597.27 -122.49,61.24 -153.19,-15.32 -260.4,0 -137.81,15.27 -750.45,-30.65 -1117.96,229.64 -76.62,61.24 -137.81,153.13 -183.84,153.13 -122.49,30.71 -780.99,153.19 -1286.48,122.59 -505.37,-30.64 -949.44,-183.72 -1255.77,-275.73 -183.84,-61.14 -336.97,-107.16 -566.72,-137.7 30.7,-107.26 46.03,-214.48 -76.57,-275.73 -107.22,-45.91 -214.38,61.24 -336.86,0l0 -137.92c-137.92,122.59 -153.13,-15.27 -367.62,-76.51l0 -61.24c61.3,-15.32 122.54,0 168.46,0 -199.05,-107.21 -398.21,-245.14 -612.59,-352.29 -199.05,-76.57 -91.83,-153.13 -91.83,-153.13 0,0 -122.59,-214.38 -183.79,-30.6 -15.38,45.92 -15.38,91.84 -30.71,122.49 91.9,30.65 168.52,168.4 61.36,137.92 -30.65,0 -92,-76.67 -107.22,-122.59 -15.38,0 -46.03,-15.32 -61.3,-45.97l0 -91.84c-30.65,-61.23 -153.13,-137.81 -245.08,-245.07 -137.81,-183.79 -245.02,-459.46 -260.34,-536.02 -122.49,-245.03 -76.57,-474.78 -183.73,-658.5 0,0 -137.92,-30.65 -183.84,-30.65 45.92,-137.92 61.24,-153.19 153.13,-245.08 -30.54,-107.16 -91.89,-183.72 -61.18,-306.21 0,-15.32 76.57,-61.35 61.18,-153.24 -15.32,-1807.23 -428.75,-1332.45 -459.45,-1363.04 46.03,-168.46 168.51,-444.19 46.03,-658.51 30.54,0 61.23,0 91.83,0l0 -76.57c-30.6,0 -61.3,0 -91.83,-15.38 -30.65,-15.22 -61.36,-45.87 -91.9,-76.57 -15.32,0 -15.32,-45.87 -15.32,-61.3 61.19,15.43 107.22,0 199.05,15.43 -61.3,-122.59 -15.27,-321.76 -15.27,-321.76 61.24,-168.4 291,-1179.2 872.93,-1592.69 122.49,-107.21 260.3,-30.64 336.97,-214.38 45.87,45.92 91.9,76.51 137.81,107.17 76.57,-275.73 536.02,-444.14 811.64,-581.95 46.03,-30.64 153.19,15.33 245.08,0 15.32,-15.43 30.59,-15.43 45.91,-15.43 -122.49,-30.48 -597.26,-183.73 -428.8,-229.64 -45.92,-15.33 -91.89,-45.98 -30.59,-61.3zm7.47 4824.36l0 0c-122.59,-30.76 61.24,122.49 122.49,137.81 137.8,15.27 -61.24,-137.81 -122.49,-137.81zm-137.92 -214.48l0 0c-244.98,-45.92 0,137.81 0,137.81 153.24,15.43 107.21,-107.17 0,-137.81zm-1271.16 -2190.06l0 0c-61.24,-45.98 -61.24,321.65 0,321.65 0,30.59 61.35,-290.94 0,-321.65z"/>
 </g>
</svg>
